<?xml version="1.0" standalone="yes"?>
<svg xmlns="http://www.w3.org/2000/svg" width="155" height="17">
<path style="fill:#fdfefc; stroke:none;" d="M0 0L0 17L155 17L155 0L0 0z"/>
<path style="fill:#161316; stroke:none;" d="M17 5L17 6L20 6L20 14L21 14L24 6L17 5z"/>
<path style="fill:#c9b097; stroke:none;" d="M24 5L25 6L24 5z"/>
<path style="fill:#161316; stroke:none;" d="M27.314 6.07176C23.4276 8.41868 26.434 15.3145 30.6867 12.9136C34.8449 10.566 31.8648 3.32366 27.314 6.07176z"/>
<path style="fill:#555c62; stroke:none;" d="M31 5L32 6L31 5z"/>
<path style="fill:#161316; stroke:none;" d="M35 5L35 14L37 14L37 5L35 5z"/>
<path style="fill:#555c62; stroke:none;" d="M39 5L39 14L40 14L39 5z"/>
<path style="fill:#161316; stroke:none;" d="M40 5L40 14L41 14L41 8L42 8L47 14L47 5L46 5L46 12L45 12L40 5z"/>
<path style="fill:#555c62; stroke:none;" d="M45 5L45 12L46 12L45 5z"/>
<path style="fill:#c9b097; stroke:none;" d="M47 5L48 6L47 5z"/>
<path style="fill:#161316; stroke:none;" d="M48 5L48 6L51 6L51 14L52 14L55 6L48 5z"/>
<path style="fill:#c9b097; stroke:none;" d="M55 5L56 6L55 5z"/>
<path style="fill:#161316; stroke:none;" d="M60 13L60 14C64.6433 12.4408 62.9674 9.69877 60 7L63 6C57.2349 4.05747 62.3461 11.2938 60 13z"/>
<path style="fill:#8a9296; stroke:none;" d="M63 5L64 6L63 5z"/>
<path style="fill:#161316; stroke:none;" d="M65 5L65 6L68 6L68 14L69 14L72 6L65 5z"/>
<path style="fill:#c9b097; stroke:none;" d="M72 5L73 6L72 5z"/>
<path style="fill:#161316; stroke:none;" d="M75.314 6.07176C71.4276 8.41869 74.434 15.3145 78.6867 12.9136C82.8449 10.566 79.8648 3.32366 75.314 6.07176z"/>
<path style="fill:#555c62; stroke:none;" d="M79 5L80 6L79 5z"/>
<path style="fill:#161316; stroke:none;" d="M83 5L83 14L85 14L85 10L88 14C89.8426 8.98598 88.461 5.42574 83 5z"/>
<path style="fill:#8a9296; stroke:none;" d="M88 5L89 6L88 5z"/>
<path style="fill:#161316; stroke:none;" d="M91 5L91 14L96 14L96 13L93 13L93 10L96 10L96 9L93 9L93 6L96 6L91 5z"/>
<path style="fill:#555c62; stroke:none;" d="M96 5L97 6L96 5z"/>
<path style="fill:#8a9296; stroke:none;" d="M19 6L19 9L20 9L19 6M21 6L21 14L22 14L21 6M25 6L26 7L25 6z"/>
<path style="fill:#555c62; stroke:none;" d="M27 6L28 7L27 6z"/>
<path style="fill:#fdfefc; stroke:none;" d="M28 6L28 13L30 13L30 6L28 6z"/>
<path style="fill:#c9b097; stroke:none;" d="M30 6L31 7L30 6z"/>
<path style="fill:#8a9296; stroke:none;" d="M42 6L43 7L42 6M50.3333 6.66667L50.6667 7.33333L50.3333 6.66667M52 6L52 14L53 14L52 6z"/>
<path style="fill:#555c62; stroke:none;" d="M63 6L64 7L63 6z"/>
<path style="fill:#8a9296; stroke:none;" d="M67 6L68 7L67 6M69 6L69 14L70 14L69 6M73 6L74 7L73 6z"/>
<path style="fill:#555c62; stroke:none;" d="M75 6L76 7L75 6z"/>
<path style="fill:#fdfefc; stroke:none;" d="M76 6L76 13L78 13L78 6L76 6z"/>
<path style="fill:#c9b097; stroke:none;" d="M78 6L79 7L78 6z"/>
<path style="fill:#fdfefc; stroke:none;" d="M85 6L85 9L87 9L87 6L85 6z"/>
<path style="fill:#555c62; stroke:none;" d="M87.3333 6.66667L87.6667 7.33333L87.3333 6.66667z"/>
<path style="fill:#c9b097; stroke:none;" d="M89 6L90 7L89 6z"/>
<path style="fill:#555c62; stroke:none;" d="M31.3333 7.66667L31.6667 8.33333L31.3333 7.66667z"/>
<path style="fill:#c9b097; stroke:none;" d="M33 7L34 8L33 7M58 7L59 8L58 7z"/>
<path style="fill:#555c62; stroke:none;" d="M60 7L61 8L60 7z"/>
<path style="fill:#c9b097; stroke:none;" d="M67 7L68 8L67 7z"/>
<path style="fill:#555c62; stroke:none;" d="M79.3333 7.66667L79.6667 8.33333L79.3333 7.66667z"/>
<path style="fill:#c9b097; stroke:none;" d="M81 7L82 8L81 7z"/>
<path style="fill:#8a9296; stroke:none;" d="M89 7L90 8L89 7z"/>
<path style="fill:#c9b097; stroke:none;" d="M24 8L24 11L25 11L24 8z"/>
<path style="fill:#555c62; stroke:none;" d="M26 8L26 11L27 11L26 8z"/>
<path style="fill:#8a9296; stroke:none;" d="M33 8L33 11L34 11L33 8M41 8L42 9L41 8M43 8L44 9L43 8z"/>
<path style="fill:#c9b097; stroke:none;" d="M50 8L51 9L50 8z"/>
<path style="fill:#8a9296; stroke:none;" d="M67 8L67 14L68 14L67 8z"/>
<path style="fill:#c9b097; stroke:none;" d="M72 8L72 11L73 11L72 8z"/>
<path style="fill:#555c62; stroke:none;" d="M74 8L74 11L75 11L74 8z"/>
<path style="fill:#8a9296; stroke:none;" d="M81 8L81 11L82 11L81 8z"/>
<path style="fill:#c9b097; stroke:none;" d="M19 9L20 10L19 9M31 9L32 10L31 9z"/>
<path style="fill:#8a9296; stroke:none;" d="M50 9L51 10L50 9z"/>
<path style="fill:#555c62; stroke:none;" d="M63 9L64 10L63 9z"/>
<path style="fill:#8a9296; stroke:none;" d="M79.3333 9.66667L79.6667 10.3333L79.3333 9.66667z"/>
<path style="fill:#c9b097; stroke:none;" d="M96 9L97 10L96 9z"/>
<path style="fill:#8a9296; stroke:none;" d="M19 10L20 11L19 10M31 10L32 11L31 10z"/>
<path style="fill:#c9b097; stroke:none;" d="M42 10L43 11L42 10z"/>
<path style="fill:#8a9296; stroke:none;" d="M44 10L45 11L44 10z"/>
<path style="fill:#c9b097; stroke:none;" d="M50 10L50 13L51 13L50 10z"/>
<path style="fill:#8a9296; stroke:none;" d="M64 10L65 11L64 10M86 10L87 11L86 10M88 10L89 11L88 10z"/>
<path style="fill:#c9b097; stroke:none;" d="M19 11L20 12L19 11z"/>
<path style="fill:#555c62; stroke:none;" d="M31 11L32 12L31 11z"/>
<path style="fill:#c9b097; stroke:none;" d="M33 11L34 12L33 11z"/>
<path style="fill:#555c62; stroke:none;" d="M43 11L44 12L43 11z"/>
<path style="fill:#c9b097; stroke:none;" d="M62 11L63 12L62 11z"/>
<path style="fill:#555c62; stroke:none;" d="M64 11L65 12L64 11M79 11L80 12L79 11z"/>
<path style="fill:#c9b097; stroke:none;" d="M81 11L82 12L81 11z"/>
<path style="fill:#8a9296; stroke:none;" d="M19.3333 12.6667L19.6667 13.3333L19.3333 12.6667z"/>
<path style="fill:#555c62; stroke:none;" d="M25 12L26 13L25 12z"/>
<path style="fill:#8a9296; stroke:none;" d="M27 12L28 13L27 12M30 12L31 13L30 12z"/>
<path style="fill:#555c62; stroke:none;" d="M32 12L33 13L32 12z"/>
<path style="fill:#8a9296; stroke:none;" d="M58.6667 12.3333L59.3333 12.6667L58.6667 12.3333z"/>
<path style="fill:#555c62; stroke:none;" d="M62 12L63 13L62 12z"/>
<path style="fill:#c9b097; stroke:none;" d="M64 12L65 13L64 12z"/>
<path style="fill:#555c62; stroke:none;" d="M73 12L74 13L73 12z"/>
<path style="fill:#8a9296; stroke:none;" d="M75 12L76 13L75 12M78 12L79 13L78 12z"/>
<path style="fill:#555c62; stroke:none;" d="M80 12L81 13L80 12M87 12L88 13L87 12z"/>
<path style="fill:#8a9296; stroke:none;" d="M89 12L90 13L89 12M26 13L27 14L26 13z"/>
<path style="fill:#c9b097; stroke:none;" d="M31 13L32 14L31 13z"/>
<path style="fill:#555c62; stroke:none;" d="M44 13L45 14L44 13z"/>
<path style="fill:#8a9296; stroke:none;" d="M50 13L51 14L50 13z"/>
<path style="fill:#555c62; stroke:none;" d="M59 13L60 14L59 13z"/>
<path style="fill:#8a9296; stroke:none;" d="M63 13L64 14L63 13M74 13L75 14L74 13z"/>
<path style="fill:#c9b097; stroke:none;" d="M79 13L80 14L79 13M87 13L88 14L87 13z"/>
<path style="fill:#555c62; stroke:none;" d="M89 13L90 14L89 13M96 13L97 14L96 13z"/>
</svg>
